<?xml version="1.0" encoding="UTF-8"?>
<svg xmlns="http://www.w3.org/2000/svg" viewBox="0 0 55.09 58.28">
  <defs>
    <style>
      .cls-1 {
        fill: #fff;
        stroke-width: 0px;
      }

      .cls-2 {
        fill: none;
        stroke: #fff;
        stroke-miterlimit: 10;
        stroke-width: 1.5px;
      }
    </style>
  </defs>
  <g id="Main_Layout_-_mono_image_masking_optional" data-name="Main Layout - mono image masking optional">
    <path class="cls-2" d="m54.34,30.74c0,14.8-12,26.79-26.79,26.79S.75,45.53.75,30.74,12.75,3.94,27.54,3.94s26.79,12,26.79,26.79Z"/>
  </g>
  <g id="Header_Footer" data-name="Header + Footer">
    <g id="Responsive-Template">
      <g id="logo-arc-rgb-colour">
        <path id="Fill-7" class="cls-1" d="m26.53,32.87c2.13,8.98,2.22,17.72.67,25.19h5.67c.94-6.73.61-14.29-1.22-22.03C28.05,20.85,15.26,5.57,5.2,0c9.46,5.24,17.74,17.73,21.33,32.87"/>
        <polyline id="Fill-9" class="cls-1" points="50.56 18.99 39.41 19.55 43.87 21.18 4.53 33.65 7.29 40.49 44.23 22.07 42.18 26.39 50.56 18.99"/>
      </g>
    </g>
  </g>
</svg>