<?xml version="1.0" encoding="UTF-8"?>
<svg xmlns="http://www.w3.org/2000/svg" viewBox="0 0 55.09 55.09">
  <defs>
    <style>
      .cls-1 {
        fill: #fff;
        stroke-width: 0px;
      }

      .cls-2 {
        fill: none;
        stroke: #fff;
        stroke-miterlimit: 10;
        stroke-width: 1.5px;
      }
    </style>
  </defs>
  <g id="Main_Layout_-_mono_image_masking_optional" data-name="Main Layout - mono image masking optional">
    <path class="cls-2" d="m54.34,27.54c0,14.8-12,26.79-26.79,26.79S.75,42.34.75,27.54,12.75.75,27.54.75s26.79,12,26.79,26.79Z"/>
  </g>
  <g id="Header_Footer" data-name="Header + Footer">
    <g id="Responsive-Template">
      <g id="logo-arc-rgb-colour">
        <path id="Fill-7" class="cls-1" d="m28.15,30.66c1.46,6.14,1.52,12.12.46,17.23h3.88c.64-4.6.42-9.77-.84-15.07-2.46-10.38-11.21-20.83-18.09-24.64,6.47,3.58,12.14,12.13,14.59,22.48"/>
        <polyline id="Fill-9" class="cls-1" points="44.59 21.16 36.96 21.54 40.01 22.66 13.1 31.19 14.99 35.87 40.25 23.27 38.85 26.22 44.59 21.16"/>
      </g>
    </g>
  </g>
</svg>